<svg class="img-fluid" id="outputsvg" xmlns="http://www.w3.org/2000/svg" style="transform: matrix(1, 0, 0, 1, 0, 0); transform-origin: 50% 50% 0px; cursor: move; max-height: 387.46px; transition: none;" width="417" height="417" viewBox="0 0 4170 4170"><g id="l2eRQqWTYCFJjrYkETXi8NC" fill="rgb(12,64,31)" style="transform: none;"><g><path id="p1GtP1HTur" d="M 1725 4069 c -545 -29 -1116 -161 -1585 -367 -59 -26 -91 -56 -119 -115 -19 -40 -23 -59 -18 -106 4 -50 19 -95 38 -111 3 -3 34 -45 69 -95 113 -160 224 -406 270 -600 21 -87 50 -307 50 -379 0 -62 8 -121 41 -286 15 -76 81 -290 114 -375 29 -74 102 -224 152 -314 173 -311 480 -564 809 -669 146 -47 231 -62 389 -69 135 -5 295 9 390 37 218 62 357 127 503 234 51 37 96 65 101 61 6 -3 13 -22 17 -43 4 -20 10 -39 15 -42 4 -3 17 -41 29 -85 16 -59 24 -133 31 -280 6 -110 15 -218 21 -240 26 -102 164 -170 269 -133 90 31 337 202 489 338 124 112 157 185 125 282 -13 41 -86 154 -115 178 -5 4 -100 126 -257 331 -29 37 -53 72 -53 76 0 4 35 30 78 58 43 28 126 99 188 160 190 189 302 389 370 665 27 109 27 461 0 570 -86 349 -281 640 -550 822 -148 101 -231 121 -315 78 -51 -25 -109 -94 -117 -138 -8 -41 1 -139 14 -155 21 -27 42 -115 42 -177 0 -164 -100 -304 -257 -360 -88 -32 -204 -25 -286 15 -227 112 -288 393 -129 589 66 81 155 124 281 136 109 9 134 17 180 55 117 99 90 303 -49 361 -81 34 -415 80 -689 94 -224 11 -312 11 -536 -1 z "></path></g></g><g id="l1gwLE54jyIoOiDlsBRhdNm" fill="rgb(13,82,23)" style="transform: none;"><g><path id="pa8sTfWtT" d="M 905 3955 c -27 -8 -103 -28 -167 -45 -131 -34 -364 -111 -478 -158 -183 -74 -201 -86 -239 -165 -19 -40 -23 -59 -18 -106 4 -50 19 -95 38 -111 3 -3 34 -45 69 -95 113 -160 224 -406 270 -600 21 -87 50 -307 50 -379 0 -62 8 -121 41 -286 15 -76 81 -290 114 -375 29 -74 102 -224 152 -314 174 -311 479 -563 813 -671 96 -31 285 -69 294 -59 3 3 2 19 -3 36 -5 18 -5 37 1 47 5 9 12 40 14 68 3 29 6 53 7 55 2 1 68 3 147 3 209 2 330 30 517 122 127 61 196 111 328 239 58 56 112 99 123 99 40 0 69 -39 111 -144 84 -214 140 -472 148 -678 3 -76 8 -138 12 -138 13 0 160 95 251 164 142 106 190 155 190 194 0 20 -6 35 -15 38 -8 4 -15 12 -15 20 0 14 -67 104 -293 394 -28 36 -75 95 -104 132 -58 71 -74 120 -51 151 7 10 47 32 88 50 269 117 497 375 595 672 135 411 16 879 -299 1172 -66 61 -214 168 -223 160 -2 -2 4 -21 13 -42 20 -50 44 -174 44 -233 -1 -187 -106 -378 -268 -486 -190 -126 -392 -138 -601 -35 -142 70 -245 189 -301 349 -33 91 -33 265 -1 360 78 233 274 389 521 416 79 9 68 12 -140 43 -219 31 -364 41 -629 41 -301 0 -550 -22 -862 -76 -36 -6 -37 -5 -70 51 -36 60 -100 136 -115 134 -5 0 -31 -7 -59 -14 z "></path></g></g><g id="l7Bxya7ifK4bL2Mx6fvQIAf" fill="rgb(20,90,29)" style="transform: none;"><g><path id="piGknrg1y" d="M 1595 3845 c -178 -17 -342 -41 -517 -76 -137 -27 -150 -28 -177 -14 -16 8 -33 19 -36 25 -10 16 -27 1 -21 -18 12 -39 -50 -72 -135 -72 -26 0 -51 5 -54 11 -5 7 -13 5 -25 -6 -16 -14 -34 -21 -63 -24 -4 -1 -13 -12 -19 -26 -12 -27 -54 -35 -76 -13 -7 7 -12 8 -12 2 0 -5 -7 -18 -15 -28 -13 -18 -17 -18 -41 -6 -23 13 -27 13 -39 -4 -8 -10 -18 -15 -23 -12 -5 3 -15 0 -21 -8 -7 -8 -23 -17 -36 -20 -14 -4 -25 -12 -25 -20 0 -7 -10 -20 -22 -28 -18 -12 -20 -18 -11 -29 14 -18 20 -51 10 -66 -9 -14 12 -63 28 -63 6 0 17 6 24 13 16 16 35 -7 99 -122 70 -125 78 -147 62 -176 -9 -17 -10 -28 -3 -37 6 -7 13 -22 15 -33 2 -13 11 -20 28 -20 30 0 47 -42 95 -235 48 -193 73 -452 44 -462 -15 -5 -20 -59 -8 -75 7 -8 7 -19 -1 -34 -10 -18 -8 -26 9 -50 12 -15 21 -36 21 -45 0 -10 5 -14 15 -10 10 4 17 -6 25 -33 12 -46 10 -181 -3 -198 -5 -7 -6 -20 -3 -29 5 -13 15 -15 40 -11 34 5 34 5 56 -56 39 -111 127 -281 200 -391 171 -255 408 -426 710 -512 84 -24 116 -27 277 -31 246 -5 354 18 560 119 127 61 196 111 328 239 58 56 112 99 123 99 40 0 69 -39 111 -144 84 -214 140 -472 148 -678 3 -76 8 -138 12 -138 13 0 160 95 251 164 142 106 190 155 190 194 0 20 -6 35 -15 38 -8 4 -15 12 -15 20 0 14 -67 104 -293 394 -28 36 -75 95 -104 132 -58 71 -74 120 -51 151 7 10 47 32 88 50 269 117 497 375 595 672 135 411 16 879 -299 1172 -66 61 -214 168 -223 160 -2 -2 4 -21 13 -42 20 -50 44 -174 44 -233 -1 -187 -106 -378 -268 -486 -190 -126 -392 -138 -601 -35 -142 70 -245 189 -301 349 -33 91 -33 265 -1 360 78 233 274 389 521 416 55 6 60 9 35 15 -60 14 -323 49 -442 59 -160 13 -615 10 -778 -5 z "></path><path id="p1597Teo9A" d="M 121 3694 c -25 -10 -31 -18 -24 -25 15 -15 51 -2 63 22 13 23 6 23 -39 3 z "></path><path id="pnQ5yDjCa" d="M 550 1739 c 0 -9 7 -34 16 -55 15 -36 17 -37 30 -19 19 26 18 39 -6 60 -11 10 -20 14 -20 9 0 -5 -5 -2 -10 6 -8 13 -10 13 -10 -1 z "></path><path id="ptV28Uu9k" d="M 770 1274 c 0 -17 28 -49 36 -41 4 4 -2 17 -14 30 -12 12 -22 17 -22 11 z "></path><path id="pLXZ4nNQe" d="M 1024 979 c -3 -6 5 -23 19 -37 26 -25 26 -25 38 2 11 23 10 29 -2 37 -19 12 -46 11 -55 -2 z "></path></g></g><g id="l3w9bY5ZMT5kxXRPHOSmgKO" fill="rgb(20,99,47)" style="transform: none;"><g><path id="piw4PSole" d="M 1590 3844 c -334 -31 -621 -88 -925 -180 -151 -46 -422 -148 -439 -164 -5 -5 7 -27 27 -52 91 -112 211 -333 272 -501 34 -94 88 -306 99 -387 3 -25 11 -109 16 -187 26 -371 148 -740 340 -1027 171 -255 408 -426 710 -512 84 -24 116 -27 277 -31 246 -5 354 18 560 119 127 61 196 111 328 239 58 56 112 99 123 99 40 0 69 -39 111 -144 84 -214 140 -472 148 -678 3 -76 8 -138 12 -138 13 0 160 95 251 164 142 106 190 155 190 194 0 20 -6 35 -15 38 -8 4 -15 12 -15 20 0 14 -67 104 -293 394 -28 36 -75 95 -104 132 -58 71 -74 120 -51 151 7 10 47 32 88 50 269 117 497 375 595 672 135 411 16 879 -299 1172 -66 61 -214 168 -223 160 -2 -2 4 -21 13 -42 20 -50 44 -174 44 -233 -1 -187 -106 -378 -268 -486 -190 -126 -392 -138 -601 -35 -142 70 -245 189 -301 349 -33 91 -33 265 -1 360 78 233 274 389 521 416 55 6 60 9 35 15 -60 14 -323 49 -442 59 -163 13 -616 10 -783 -6 z  m 912 -2056 c 59 -57 177 -130 233 -144 53 -12 83 -33 93 -63 9 -25 7 -35 -12 -63 -19 -28 -28 -33 -62 -32 -21 0 -55 7 -74 14 -19 7 -54 19 -77 27 -70 24 -240 160 -269 215 -19 37 -18 61 6 91 22 28 66 39 90 22 8 -5 40 -36 72 -67 z "></path><path id="p1AvbYfAK6" d="M 428 2364 c 4 -33 6 -35 21 -20 12 12 13 21 5 33 -19 30 -30 25 -26 -13 z "></path></g></g><g id="l3z8bBePtISDGEJISkYlj71" fill="rgb(21,108,51)" style="transform: none;"><g><path id="poXz9vD42" d="M 1590 3844 c -334 -31 -621 -88 -925 -180 -151 -46 -422 -148 -439 -164 -5 -5 7 -27 27 -52 91 -112 211 -333 272 -501 34 -94 88 -306 99 -387 3 -25 11 -109 16 -187 26 -371 148 -740 340 -1027 171 -255 408 -426 710 -512 84 -24 116 -27 277 -31 246 -5 354 18 560 119 127 61 196 111 328 239 58 56 112 99 123 99 40 0 69 -39 111 -144 84 -214 140 -472 148 -678 3 -76 8 -138 12 -138 13 0 160 95 251 164 142 106 190 155 190 194 0 20 -6 35 -15 38 -8 4 -15 14 -15 24 0 9 -9 25 -20 35 -20 18 -21 18 -43 -3 -20 -19 -25 -19 -54 -7 -42 18 -43 47 -2 75 30 22 30 22 2 37 -15 8 -48 18 -71 21 -44 7 -44 7 -23 33 36 46 22 72 -190 336 -54 66 -70 116 -47 146 7 10 47 32 88 50 269 117 497 375 595 672 135 411 16 879 -299 1172 -66 61 -214 168 -223 160 -2 -2 4 -21 13 -42 20 -50 44 -174 44 -233 -1 -187 -106 -378 -268 -486 -190 -126 -392 -138 -601 -35 -142 70 -245 189 -301 349 -33 91 -33 265 -1 360 78 233 274 389 521 416 55 6 60 9 35 15 -60 14 -323 49 -442 59 -163 13 -616 10 -783 -6 z  m 912 -2056 c 59 -57 177 -130 233 -144 53 -12 83 -33 93 -63 9 -25 7 -35 -12 -63 -19 -28 -28 -33 -62 -32 -21 0 -55 7 -74 14 -19 7 -54 19 -77 27 -70 24 -240 160 -269 215 -19 37 -18 61 6 91 22 28 66 39 90 22 8 -5 40 -36 72 -67 z "></path></g></g><g id="l1f4jyjByVlmuPgQ7BAZ4fS" fill="rgb(22,115,50)" style="transform: none;"><g><path id="pg6e3URPF" d="M 1590 3844 c -334 -31 -621 -88 -925 -180 -151 -46 -422 -148 -439 -164 -5 -5 7 -27 27 -52 91 -112 211 -333 272 -501 34 -94 88 -306 99 -387 3 -25 11 -109 16 -187 26 -371 148 -740 340 -1027 171 -255 408 -426 710 -512 84 -24 116 -27 277 -31 222 -4 326 13 381 65 29 27 35 29 61 19 26 -10 40 -5 134 42 103 52 225 140 300 218 29 31 38 49 41 84 2 24 11 60 19 79 10 22 12 41 6 51 -4 9 -9 33 -11 53 -1 21 -6 40 -10 43 -5 2 -6 14 -3 24 4 11 1 26 -5 34 -10 12 -9 16 6 21 38 11 49 22 52 46 3 23 10 27 65 38 65 14 231 91 296 138 196 142 340 356 402 595 9 35 16 47 26 42 9 -3 27 8 44 26 30 32 30 32 8 55 -21 23 -21 24 -5 59 16 33 16 38 2 60 -9 13 -16 31 -16 38 0 8 -7 20 -15 27 -16 13 -21 65 -7 74 5 3 7 18 4 35 -3 24 0 30 20 37 12 4 35 7 49 6 15 -1 37 6 50 17 23 18 23 18 -6 87 -59 141 -146 266 -259 371 -66 61 -214 168 -223 160 -2 -2 4 -21 13 -42 20 -50 44 -174 44 -233 -1 -187 -106 -378 -268 -486 -190 -126 -392 -138 -601 -35 -142 70 -245 189 -301 349 -33 91 -33 265 -1 360 78 233 274 389 521 416 55 6 60 9 35 15 -60 14 -323 49 -442 59 -163 13 -616 10 -783 -6 z  m 912 -2056 c 59 -57 177 -130 233 -144 53 -12 83 -33 93 -63 9 -25 7 -35 -12 -63 -19 -28 -28 -33 -62 -32 -21 0 -55 7 -74 14 -19 7 -54 19 -77 27 -70 24 -240 160 -269 215 -19 37 -18 61 6 91 22 28 66 39 90 22 8 -5 40 -36 72 -67 z "></path><path id="p17QU0SvOs" d="M 3078 1236 c -28 -23 -28 -23 12 -123 82 -209 139 -470 147 -675 3 -76 8 -138 12 -138 13 0 160 95 251 164 141 105 190 155 190 194 0 62 -73 70 -157 16 -30 -19 -59 -32 -63 -27 -4 4 -20 44 -34 88 -15 44 -31 84 -35 90 -5 5 -16 33 -25 60 -9 28 -32 76 -51 108 -19 32 -35 60 -35 63 0 25 -153 204 -175 204 -5 0 -22 -11 -37 -24 z "></path></g></g><g id="l2PTIXhi08iJFgjKwlWj249" fill="rgb(24,124,43)" style="transform: none;"><g><path id="pxMtJUjm3" d="M 1590 3844 c -334 -31 -621 -88 -925 -180 -151 -46 -422 -148 -439 -164 -5 -5 7 -27 27 -52 91 -112 211 -333 272 -501 34 -94 88 -306 99 -387 3 -25 11 -109 16 -187 26 -371 148 -740 340 -1027 172 -257 411 -429 716 -513 87 -24 117 -28 244 -28 133 0 152 2 230 29 162 54 295 156 342 262 31 71 23 160 -20 212 -28 36 -30 43 -20 70 10 27 8 33 -20 68 -18 21 -32 42 -32 46 0 3 15 11 34 18 18 6 43 21 54 33 22 23 22 23 -19 53 -105 74 -169 147 -169 192 0 30 37 69 70 74 27 4 40 -4 101 -63 153 -148 343 -214 514 -178 63 13 230 91 294 137 126 92 225 205 303 347 72 131 92 193 112 346 25 192 -6 329 -129 583 -53 108 -57 120 -41 131 15 12 15 13 -1 21 -10 4 -24 8 -31 8 -8 1 -28 26 -46 55 -41 70 -56 76 -45 19 41 -213 -66 -453 -259 -582 -190 -126 -392 -138 -601 -35 -142 70 -245 189 -301 349 -33 91 -33 265 -1 360 78 233 274 389 521 416 55 6 60 9 35 15 -60 14 -323 49 -442 59 -163 13 -616 10 -783 -6 z  m -634 -596 c 16 -12 68 -56 116 -96 76 -64 87 -78 82 -98 -5 -19 -2 -24 14 -24 11 0 25 -7 32 -15 7 -8 18 -15 24 -15 6 0 42 -30 79 -67 60 -59 67 -71 67 -105 0 -33 5 -42 30 -56 16 -9 34 -29 39 -45 12 -34 58 -74 93 -81 25 -5 27 -8 21 -38 -8 -42 -18 -49 -72 -45 -45 2 -45 2 -65 -50 -12 -29 -24 -53 -27 -53 -3 0 -12 12 -19 26 -11 20 -11 29 -2 44 7 11 8 21 2 25 -5 3 -6 13 -3 21 4 11 0 14 -19 12 -22 -3 -36 12 -111 124 -87 129 -156 218 -304 389 -83 97 -98 130 -71 157 19 19 63 14 94 -10 z "></path></g></g><g id="llSwJDyufexNYwwRG20GPR" fill="rgb(22,128,62)" style="transform: none;"><g><path id="pkrYdmt7g" d="M 1590 3844 c -334 -31 -621 -88 -925 -180 -151 -46 -422 -148 -439 -164 -5 -5 7 -27 27 -52 91 -112 211 -333 272 -501 34 -94 88 -306 99 -387 3 -25 11 -109 16 -187 26 -371 148 -740 340 -1027 172 -257 411 -429 716 -513 87 -24 117 -28 244 -28 133 0 152 2 230 29 113 37 204 92 268 160 72 76 95 131 90 212 -5 76 -38 125 -109 162 -40 22 -52 23 -144 18 -328 -19 -854 4 -912 40 -14 9 -23 24 -23 39 0 37 35 52 130 59 195 15 397 44 505 73 109 30 110 23 -8 136 -116 112 -235 247 -330 373 -61 81 -61 81 -156 108 -109 31 -460 145 -536 175 -55 21 -80 49 -70 80 12 37 35 41 151 26 60 -8 154 -18 208 -21 88 -6 100 -5 112 11 11 15 9 26 -17 77 -63 125 -202 314 -396 539 -83 97 -98 130 -71 157 24 24 66 13 125 -35 171 -138 349 -312 487 -475 86 -102 96 -97 171 90 25 62 69 163 99 227 48 101 58 115 79 115 53 0 53 -16 3 -223 -48 -198 -72 -336 -81 -467 -6 -75 -6 -75 62 -155 75 -88 383 -405 394 -405 4 0 10 25 14 56 10 79 81 359 102 402 15 31 24 37 55 40 60 5 63 -9 48 -243 -7 -111 -10 -228 -7 -259 5 -55 8 -60 77 -126 154 -149 344 -215 515 -179 63 13 230 91 294 137 126 92 225 205 303 347 72 131 92 193 112 346 25 192 -6 329 -129 583 -53 108 -57 120 -41 131 15 12 15 13 -1 21 -10 4 -24 8 -31 8 -8 1 -28 26 -46 55 -41 70 -56 76 -45 19 41 -213 -66 -453 -259 -582 -190 -126 -392 -138 -601 -35 -142 70 -245 189 -301 349 -33 91 -33 265 -1 360 78 233 274 389 521 416 55 6 60 9 35 15 -60 14 -323 49 -442 59 -163 13 -616 10 -783 -6 z "></path><path id="phd10aBgw" d="M 3113 1189 c -18 -16 -33 -37 -33 -45 0 -24 29 -74 43 -74 25 0 40 -45 42 -125 2 -44 10 -107 18 -140 32 -118 57 -298 57 -401 0 -57 3 -104 8 -104 14 0 157 93 252 164 141 105 190 155 190 194 0 62 -73 70 -157 16 -30 -19 -59 -32 -63 -27 -4 4 -20 44 -34 88 -15 44 -31 84 -35 90 -5 5 -16 33 -25 60 -9 28 -32 76 -51 108 -19 32 -35 61 -35 64 0 19 -54 73 -73 73 -30 0 -51 15 -42 29 10 17 -3 61 -18 61 -6 0 -27 -14 -44 -31 z "></path></g></g><g id="l5jo4BFS7tVEbDAByiPnGBg" fill="rgb(25,140,69)" style="transform: none;"><g><path id="p2JGigrr2" d="M 3302 765 c -12 -7 -32 -30 -44 -51 -19 -36 -21 -53 -19 -223 1 -102 3 -187 6 -189 14 -14 307 191 398 279 36 35 47 52 47 77 0 62 -73 70 -157 16 -30 -19 -58 -32 -62 -29 -3 4 -13 27 -22 53 -14 42 -19 47 -49 50 -18 2 -42 9 -54 16 -17 11 -26 11 -44 1 z "></path></g></g><g id="l6sdArvtPVs9JdIIOWqaUtG" fill="rgb(36,162,42)" style="transform: none;"><g><path id="pyYLsdusP" d="M 1590 3844 c -334 -31 -621 -88 -925 -180 -151 -46 -422 -148 -439 -164 -5 -5 7 -27 27 -52 91 -112 211 -333 272 -501 34 -94 88 -306 99 -387 3 -25 11 -109 16 -187 26 -371 148 -740 340 -1027 172 -257 411 -429 716 -513 87 -24 117 -28 244 -28 133 0 152 2 230 29 113 37 204 92 268 160 72 76 95 131 90 212 -5 76 -38 125 -109 162 -40 22 -52 23 -144 18 -328 -19 -854 4 -912 40 -14 9 -23 24 -23 39 0 37 35 52 130 59 195 15 397 44 505 73 109 30 110 23 -8 136 -116 112 -235 247 -330 373 -61 81 -61 81 -156 108 -109 31 -460 145 -536 175 -55 21 -80 49 -70 80 12 37 35 41 151 26 60 -8 154 -18 208 -21 88 -6 100 -5 112 11 11 15 9 26 -17 77 -63 125 -202 314 -396 539 -83 97 -98 130 -71 157 24 24 66 13 125 -35 171 -138 349 -312 487 -475 86 -102 96 -97 171 90 25 62 69 163 99 227 48 101 58 115 79 115 53 0 53 -16 3 -223 -48 -198 -72 -336 -81 -467 -6 -75 -6 -75 62 -155 75 -88 383 -405 394 -405 4 0 10 25 14 56 10 79 81 359 102 402 15 31 24 37 55 40 60 5 63 -9 48 -243 -7 -111 -10 -228 -7 -259 5 -55 8 -60 77 -126 154 -149 344 -215 515 -179 63 13 230 91 294 137 126 92 225 205 303 347 72 131 92 193 112 346 17 133 5 255 -39 373 -39 106 -112 266 -146 316 -13 20 -35 57 -49 83 -13 26 -29 46 -35 44 -5 -2 -13 -47 -16 -100 -14 -213 -102 -371 -267 -481 -190 -126 -392 -138 -601 -35 -142 70 -245 189 -301 349 -33 91 -33 265 -1 360 78 233 274 389 521 416 55 6 60 9 35 15 -60 14 -323 49 -442 59 -163 13 -616 10 -783 -6 z "></path></g></g><g id="l69VgJJD4xp74kcybLeuBOF" fill="rgb(35,156,57)" style="transform: none;"><g><path id="pk6sNF0tZ" d="M 1590 3844 c -334 -31 -621 -88 -925 -180 -151 -46 -422 -148 -439 -164 -5 -5 7 -27 27 -52 91 -112 211 -333 272 -501 34 -94 88 -306 99 -387 3 -25 11 -109 16 -187 26 -371 148 -740 340 -1027 172 -257 411 -429 716 -513 87 -24 117 -28 244 -28 133 0 152 2 230 29 106 35 201 91 259 150 43 44 44 45 28 70 -20 30 -22 46 -4 46 19 0 38 38 32 63 -4 13 -2 35 4 49 10 27 -4 49 -37 59 -10 3 -8 11 7 30 19 25 20 27 3 42 -42 38 -93 50 -187 43 -298 -20 -854 4 -912 40 -14 9 -23 24 -23 39 0 37 35 52 130 59 195 15 397 44 505 73 109 30 110 23 -8 136 -116 112 -235 247 -330 373 -61 81 -61 81 -156 108 -109 31 -460 145 -536 175 -55 21 -80 49 -70 80 12 37 35 41 151 26 60 -8 154 -18 208 -21 88 -6 100 -5 112 11 11 15 9 26 -17 77 -63 125 -202 314 -396 539 -83 97 -98 130 -71 157 24 24 66 13 125 -35 171 -138 349 -312 487 -475 86 -102 96 -97 171 90 25 62 69 163 99 227 48 101 58 115 79 115 53 0 53 -16 3 -223 -48 -198 -72 -336 -81 -467 -6 -75 -6 -75 62 -155 75 -88 383 -405 394 -405 4 0 10 25 14 56 10 79 81 359 102 402 15 31 24 37 55 40 60 5 63 -9 48 -243 -7 -111 -10 -228 -7 -259 5 -55 8 -60 77 -126 40 -38 101 -86 137 -106 65 -36 65 -36 87 -15 20 19 24 19 37 5 21 -21 46 -8 53 27 6 30 32 39 53 18 7 -7 17 -8 29 -1 11 5 25 7 32 5 6 -3 12 2 12 10 0 20 36 51 45 38 9 -16 41 -13 59 5 10 10 24 13 37 9 14 -5 28 0 44 15 15 14 25 18 30 11 3 -6 17 -11 30 -11 13 0 27 -4 30 -10 11 -19 53 -10 76 15 39 42 58 49 79 30 17 -16 20 -15 50 6 20 15 28 28 24 39 -15 35 -10 45 21 42 26 -2 36 4 67 45 68 91 145 246 170 342 17 68 34 230 29 273 -5 32 -12 46 -28 53 -15 6 -23 18 -23 35 0 43 -14 56 -45 42 -14 -7 -34 -12 -44 -12 -21 0 -51 30 -51 52 0 23 -22 28 -41 11 -23 -20 -95 -8 -78 13 14 18 -14 54 -42 54 -10 0 -21 5 -24 10 -3 6 -24 -12 -46 -40 -106 -134 -301 -230 -466 -230 -145 1 -315 73 -422 179 -73 72 -116 140 -151 241 -33 91 -33 265 -1 360 78 233 274 389 521 416 55 6 60 9 35 15 -60 14 -323 49 -442 59 -163 13 -616 10 -783 -6 z  m 432 -111 c 8 -16 13 -34 11 -41 -3 -7 2 -21 11 -31 13 -14 14 -24 7 -45 -6 -14 -9 -26 -8 -27 1 0 11 -2 22 -3 11 -2 30 -6 42 -10 21 -7 22 -9 8 -30 -14 -21 -13 -23 10 -34 14 -6 31 -9 39 -6 8 3 17 1 21 -5 3 -6 21 -11 40 -11 45 0 50 -21 18 -73 -24 -37 -32 -43 -63 -43 -19 0 -43 -4 -52 -8 -13 -6 -18 -4 -18 8 0 8 -11 18 -25 22 -13 3 -33 21 -44 39 -15 26 -24 32 -41 28 -15 -4 -29 3 -50 28 -17 18 -30 38 -30 45 0 21 -34 77 -72 118 -22 24 -34 45 -31 56 3 10 0 21 -6 24 -29 19 -2 26 92 26 102 0 103 0 119 -27 z "></path><path id="pR96ZW4bd" d="M 3436 3258 c -3 -7 -7 -53 -10 -103 -2 -49 -13 -118 -24 -152 -20 -62 -20 -62 1 -69 14 -4 26 0 37 13 13 16 21 18 44 10 31 -10 46 1 46 36 0 19 11 22 27 6 7 -7 17 -8 27 -2 13 7 13 13 -4 52 -11 23 -32 62 -47 85 -16 23 -39 63 -53 89 -25 48 -37 57 -44 35 z "></path><path id="p1HjLiKRyd" d="M 3610 2911 c -15 -47 -10 -57 19 -41 24 12 26 25 7 58 -12 23 -13 23 -26 -17 z "></path></g></g><g id="lXLeqYGRLsOJke2txtGRNG" fill="rgb(39,174,43)" style="transform: none;"><g><path id="pF0ndpHpU" d="M 1590 3844 c -334 -31 -621 -88 -925 -180 -151 -46 -422 -148 -439 -164 -5 -5 7 -27 27 -52 91 -112 211 -333 272 -501 34 -94 88 -306 99 -387 3 -25 11 -109 16 -187 26 -371 148 -740 340 -1027 172 -257 411 -429 716 -513 87 -24 117 -28 244 -28 133 0 152 2 230 29 106 35 201 91 259 150 43 44 44 45 28 70 -20 30 -22 46 -4 46 19 0 38 38 32 63 -4 13 -2 35 4 49 10 27 -4 49 -37 59 -10 3 -8 11 7 30 19 25 20 27 3 42 -42 38 -93 50 -187 43 -298 -20 -854 4 -912 40 -14 9 -23 24 -23 39 0 37 35 52 130 59 195 15 397 44 505 73 109 30 110 23 -8 136 -116 112 -235 247 -330 373 -61 81 -61 81 -156 108 -109 31 -460 145 -536 175 -55 21 -80 49 -70 80 12 37 35 41 151 26 60 -8 154 -18 208 -21 88 -6 100 -5 112 11 11 15 9 26 -17 77 -63 125 -202 314 -396 539 -83 97 -98 130 -71 157 24 24 66 13 125 -35 171 -138 349 -312 487 -475 86 -102 96 -97 171 90 25 62 69 163 99 227 48 101 58 115 79 115 53 0 53 -16 3 -223 -48 -198 -72 -336 -81 -467 -6 -75 -6 -75 62 -155 75 -88 383 -405 394 -405 4 0 10 25 14 56 10 79 81 359 102 402 15 31 24 37 55 40 60 5 63 -9 48 -243 -7 -111 -10 -228 -7 -259 5 -55 8 -60 77 -126 40 -38 101 -86 137 -106 65 -36 65 -36 87 -15 20 19 24 19 37 5 21 -21 46 -8 53 27 6 30 32 39 53 18 7 -7 17 -8 29 -1 11 5 25 7 32 5 6 -3 12 2 12 10 0 20 36 51 45 38 9 -16 41 -13 59 5 10 10 24 13 37 9 14 -5 28 0 44 15 15 14 25 18 30 11 3 -6 17 -11 30 -11 13 0 27 -4 30 -10 11 -19 53 -10 76 15 39 42 58 49 79 30 17 -16 20 -15 50 6 20 15 28 28 24 39 -15 35 -10 45 21 42 26 -2 36 4 67 45 68 91 145 246 170 342 17 68 34 230 29 273 -5 32 -12 46 -28 53 -15 6 -23 18 -23 35 0 43 -14 56 -45 42 -14 -7 -34 -12 -44 -12 -21 0 -51 30 -51 52 0 23 -22 28 -41 11 -23 -20 -95 -8 -78 13 14 18 -14 54 -42 54 -10 0 -21 5 -24 10 -3 6 -24 -12 -46 -40 -106 -134 -301 -230 -466 -230 -145 1 -315 73 -422 179 -73 72 -116 140 -151 241 -19 53 -23 85 -23 180 0 116 15 187 57 269 9 16 16 33 16 37 0 14 -58 -47 -75 -80 -15 -27 -23 -32 -54 -32 -20 0 -44 -4 -53 -8 -13 -6 -18 -4 -18 8 0 8 -11 18 -25 22 -13 3 -33 21 -44 39 -15 26 -24 32 -41 28 -15 -4 -29 3 -50 28 -17 18 -30 38 -30 45 0 21 -34 77 -72 118 -22 24 -34 45 -31 56 3 10 0 21 -6 24 -6 4 -11 12 -11 18 0 16 495 3 642 -17 116 -15 116 -15 190 9 40 13 105 28 143 32 58 6 65 8 40 14 -59 14 -322 50 -442 60 -163 13 -616 10 -783 -6 z "></path></g></g><g id="l5kLuTl442RtFUZNLTlaEln" fill="rgb(48,188,40)" style="transform: none;"><g><path id="p15Qbtx54o" d="M 1590 3844 c -334 -31 -621 -88 -925 -180 -151 -46 -422 -148 -439 -164 -5 -5 7 -27 27 -52 91 -112 211 -333 272 -501 34 -94 88 -306 99 -387 3 -25 11 -109 16 -187 40 -572 304 -1114 663 -1361 155 -107 390 -197 489 -187 27 3 57 9 68 15 30 16 42 13 31 -9 -8 -15 -7 -20 5 -25 30 -12 80 -6 96 12 32 34 46 41 74 38 38 -4 84 12 84 30 0 8 -14 26 -30 41 -20 17 -28 32 -24 42 4 9 10 30 13 46 5 23 12 29 28 27 23 -3 29 20 32 108 1 29 8 50 18 57 10 8 17 30 19 59 1 25 8 52 14 59 6 8 9 23 5 35 -6 20 -11 21 -248 19 -266 -1 -574 22 -614 47 -14 9 -23 24 -23 39 0 37 35 52 130 59 195 15 397 44 505 73 109 30 110 23 -8 136 -116 112 -235 247 -330 373 -61 81 -61 81 -156 108 -109 31 -460 145 -536 175 -55 21 -80 49 -70 80 12 37 35 41 151 26 60 -8 154 -18 208 -21 88 -6 100 -5 112 11 11 15 9 26 -17 77 -63 125 -202 314 -396 539 -83 97 -98 130 -71 157 24 24 66 13 125 -35 171 -138 349 -312 487 -475 86 -102 96 -97 170 89 69 169 144 324 170 348 13 12 25 28 28 36 5 11 10 10 28 -7 17 -17 20 -25 12 -40 -16 -29 -100 -397 -117 -509 -8 -55 -17 -134 -20 -175 -6 -75 -6 -75 62 -155 75 -88 383 -405 394 -405 4 0 10 25 14 56 10 79 81 359 102 402 15 32 24 37 55 40 59 5 64 -14 49 -216 -14 -203 -14 -309 -1 -317 5 -3 25 -3 44 1 26 4 39 14 48 35 15 33 20 35 53 13 24 -15 26 -14 74 34 35 35 48 55 45 69 -4 14 5 27 36 48 31 21 39 33 34 47 -6 19 -5 19 28 2 56 -30 97 -16 144 47 16 21 23 42 20 55 -4 14 2 28 14 39 11 10 20 22 20 28 0 5 9 22 20 37 18 25 19 34 9 82 -6 29 -15 61 -20 71 -13 25 -6 33 60 67 57 28 151 109 151 130 0 5 -24 -6 -54 -25 -180 -115 -383 -123 -585 -24 -142 70 -245 189 -301 349 -19 53 -23 85 -23 180 0 117 15 187 58 270 24 45 13 47 -25 3 -33 -37 -92 -153 -105 -206 -6 -21 -13 -27 -34 -27 -15 0 -32 -5 -38 -11 -9 -9 -19 -6 -39 10 -16 13 -31 18 -37 12 -5 -5 -21 -3 -39 7 -24 11 -35 12 -49 4 -18 -12 -32 -3 -35 23 0 6 -2 16 -2 23 -1 6 -8 12 -16 12 -8 0 -17 11 -20 25 -5 21 -10 24 -36 18 -27 -5 -30 -3 -30 20 0 30 -33 46 -55 27 -17 -14 -35 -5 -35 17 0 9 -13 37 -29 63 -21 34 -26 51 -19 63 11 20 -21 72 -51 82 -27 8 -81 80 -81 108 0 25 0 25 208 32 249 9 556 0 714 -20 116 -15 116 -15 190 9 40 13 105 28 143 32 58 6 65 8 40 14 -59 14 -322 50 -442 60 -163 13 -616 10 -783 -6 z "></path></g></g><g id="l7MPYTXFjp8LPZFx2exKDkr" fill="rgb(51,199,40)" style="transform: none;"><g><path id="pge61kwE8" d="M 1590 3844 c -334 -31 -621 -88 -925 -180 -151 -46 -422 -148 -439 -164 -5 -5 7 -27 27 -52 91 -112 211 -333 272 -501 34 -94 88 -306 99 -387 3 -25 11 -109 16 -187 20 -284 90 -548 215 -809 153 -318 372 -542 650 -664 150 -65 223 -65 225 3 0 9 6 17 13 17 6 0 21 7 32 16 16 12 18 18 7 34 -10 16 -10 25 2 43 7 12 17 38 20 58 4 21 13 42 21 49 19 16 19 50 -1 78 -16 23 -7 31 14 10 8 -8 15 -8 27 2 18 15 20 61 3 78 -6 6 -12 26 -12 44 -1 31 -4 33 -46 40 -25 4 -130 14 -235 23 -203 18 -235 28 -235 70 0 37 35 52 130 59 195 15 397 44 505 73 109 30 110 23 -8 136 -116 112 -235 247 -330 373 -61 81 -61 81 -156 108 -109 31 -460 145 -536 175 -55 21 -80 49 -70 80 12 37 35 41 151 26 60 -8 154 -18 208 -21 88 -6 100 -5 112 11 11 15 9 26 -17 77 -63 125 -202 314 -396 539 -83 97 -98 130 -71 157 24 24 66 13 125 -35 171 -138 349 -312 487 -475 87 -103 95 -99 176 101 49 123 49 123 20 153 -17 16 -30 34 -30 39 0 5 -11 7 -25 3 -22 -6 -25 -3 -25 23 0 44 -19 57 -41 28 -11 -13 -19 -33 -19 -45 0 -20 -2 -20 -46 12 -59 42 -60 45 -33 74 12 13 17 24 11 24 -7 0 -22 11 -34 25 -25 29 -47 19 -49 -24 -1 -21 -2 -22 -6 -6 -3 11 -12 28 -20 37 -8 9 -13 20 -10 25 2 4 1 19 -4 32 -7 18 -14 22 -34 17 -21 -5 -25 -3 -25 18 0 13 -7 26 -15 30 -8 3 -15 17 -15 31 0 14 -7 28 -15 31 -8 3 -31 21 -52 40 -20 19 -41 34 -45 34 -4 0 -8 6 -8 14 0 8 -7 12 -17 10 -25 -6 -61 51 -69 107 -5 40 -3 48 23 75 39 43 16 38 353 81 187 24 848 24 1017 0 121 -17 121 -17 195 7 40 13 105 28 143 32 58 6 65 8 40 14 -59 14 -322 50 -442 60 -163 13 -616 10 -783 -6 z "></path><path id="p1D6kUij4l" d="M 2270 3453 c -49 -55 -99 -172 -117 -272 -14 -79 -14 -98 -1 -177 8 -49 13 -91 11 -93 -1 -2 -11 3 -21 12 -10 10 -30 17 -43 17 -14 0 -35 7 -47 16 -21 15 -25 15 -43 -2 -15 -13 -22 -15 -31 -6 -16 16 -85 15 -95 0 -4 -7 -6 -21 -4 -32 1 -10 -2 -16 -8 -12 -5 4 -21 4 -35 0 -20 -5 -27 -16 -40 -72 -20 -83 -44 -243 -51 -342 -6 -75 -6 -75 62 -155 37 -44 130 -143 205 -219 136 -140 136 -140 170 -122 32 18 34 22 75 187 23 93 49 186 60 206 16 35 22 38 63 41 24 2 49 7 55 12 7 6 21 0 37 -15 23 -21 26 -30 21 -62 -3 -21 -10 -42 -14 -48 -16 -17 -9 -33 15 -37 18 -4 27 1 34 16 33 70 41 95 35 114 -4 17 -2 21 10 16 9 -3 19 -14 22 -25 7 -22 45 -26 45 -5 0 8 -4 18 -10 21 -5 3 -10 13 -10 22 0 30 33 42 111 43 142 0 329 73 423 165 26 24 46 49 46 55 0 5 -24 -6 -54 -25 -180 -115 -383 -123 -585 -24 -142 70 -245 189 -301 349 -19 53 -23 85 -23 180 0 117 15 187 58 270 24 45 13 47 -25 3 z "></path></g></g><g id="l27MDZA87Oal1TrqXbKUoyK" fill="rgb(57,211,27)" style="transform: none;"><g><path id="pe0TKjBAi" d="M 806 3043 c -23 -21 -32 -24 -46 -15 -14 9 -23 5 -44 -17 -14 -15 -26 -34 -26 -43 0 -13 -7 -16 -33 -11 -50 8 -62 -13 -50 -86 7 -45 6 -63 -4 -78 -12 -19 -11 -23 11 -41 25 -19 25 -19 5 -38 -16 -14 -19 -26 -14 -49 16 -76 25 -150 34 -279 8 -117 13 -142 29 -159 17 -16 18 -24 9 -44 -13 -30 0 -115 38 -248 95 -330 243 -603 427 -787 54 -53 95 -87 104 -84 7 3 16 1 20 -5 3 -5 15 -7 26 -4 14 5 21 2 24 -12 4 -13 16 -19 46 -20 23 -2 49 -10 59 -19 16 -14 19 -14 39 3 20 16 61 94 59 111 -3 21 3 23 20 8 18 -17 19 -16 26 6 14 49 30 78 44 78 8 0 11 6 7 16 -3 9 1 25 9 37 32 46 12 88 -40 84 -23 -2 -32 4 -42 25 -12 24 -20 27 -81 33 -84 7 -116 22 -120 57 -5 39 28 55 128 62 194 15 398 44 411 60 5 6 19 23 30 39 11 15 26 26 33 25 6 -2 24 7 38 18 27 21 27 21 -46 95 -94 94 -221 241 -299 345 -61 81 -61 81 -156 108 -109 31 -460 145 -536 175 -55 21 -80 49 -70 80 12 37 35 41 151 26 60 -8 154 -18 208 -21 88 -6 100 -5 112 11 11 15 9 26 -17 76 -22 45 -144 236 -164 257 -2 2 -12 -2 -23 -9 -26 -16 -49 -6 -65 28 -6 15 -33 47 -59 71 -27 25 -48 52 -48 61 0 10 -6 29 -12 43 -11 22 -18 26 -41 21 -17 -3 -34 0 -45 9 -31 27 -38 27 -66 1 z "></path></g></g><g id="l3zWQpetyeM69RrzUJ1clrk" fill="rgb(105,202,70)" style="transform: none;"><g><path id="p631TBn16" d="M 2270 3453 c -48 -55 -98 -170 -117 -270 -15 -81 -15 -95 1 -190 19 -117 31 -149 99 -250 62 -92 114 -138 218 -190 100 -49 159 -66 257 -71 133 -7 329 68 426 163 26 24 46 49 46 55 0 5 -24 -6 -54 -25 -180 -115 -383 -123 -585 -24 -142 70 -245 189 -301 349 -19 53 -23 85 -23 180 0 117 15 187 58 270 24 45 13 47 -25 3 z "></path><path id="p8vy1HNcJ" d="M 3480 639 c -130 -87 -174 -130 -204 -194 -26 -54 -44 -145 -29 -145 30 0 310 198 396 281 74 71 63 129 -25 129 -24 0 -61 -19 -138 -71 z "></path></g></g><g id="l6AFLMV3pLABxy1MnXfvsRl" fill="rgb(145,221,111)" style="transform: none;"><g><path id="pR29ysYoq" d="M 1590 3844 c -334 -31 -621 -88 -925 -180 -153 -47 -423 -148 -439 -164 -6 -6 -3 -17 8 -29 18 -20 18 -20 70 1 267 107 638 201 976 247 225 31 295 35 655 35 308 0 403 -3 502 -17 121 -17 121 -17 195 7 40 13 105 28 143 32 58 6 65 8 40 14 -59 14 -322 50 -442 60 -163 13 -616 10 -783 -6 z "></path></g></g></svg>
